<?xml version="1.0" encoding="UTF-8"?>
<svg id="Layer_1" data-name="Layer 1" xmlns="http://www.w3.org/2000/svg" version="1.1" viewBox="0 0 510.128 97.885">
  <defs>
    <style>
      .cls-1 {
        fill: #202124;
        stroke-width: 0px;
      }
    </style>
  </defs>
  <g>
    <path class="cls-1" d="M38.524,75.937C17.595,75.937,0,58.898,0,37.969S17.595,0,38.524,0c11.576,0,19.818,4.538,26.022,10.465l-7.316,7.316c-4.445-4.167-10.464-7.409-18.706-7.409-15.28,0-27.227,12.317-27.227,27.597s11.946,27.596,27.227,27.596c9.908,0,15.558-3.982,19.169-7.593,2.964-2.964,4.908-7.224,5.648-13.058h-24.757v-10.372h34.851c.37,1.853.555,4.075.555,6.483,0,7.779-2.13,17.41-8.982,24.263-6.668,6.945-15.187,10.65-26.485,10.65Z"/>
    <path class="cls-1" d="M126.311,51.489c0,14.076-11.021,24.448-24.541,24.448s-24.541-10.372-24.541-24.448c0-14.169,11.021-24.448,24.541-24.448s24.541,10.279,24.541,24.448ZM115.568,51.489c0-8.798-6.39-14.817-13.798-14.817s-13.798,6.02-13.798,14.817c0,8.705,6.39,14.817,13.798,14.817s13.798-6.112,13.798-14.817Z"/>
    <path class="cls-1" d="M179.366,51.489c0,14.076-11.021,24.448-24.541,24.448s-24.541-10.372-24.541-24.448c0-14.169,11.021-24.448,24.541-24.448s24.541,10.279,24.541,24.448ZM168.623,51.489c0-8.798-6.39-14.817-13.798-14.817s-13.798,6.02-13.798,14.817c0,8.705,6.39,14.817,13.798,14.817s13.798-6.112,13.798-14.817Z"/>
    <path class="cls-1" d="M230.067,28.635v43.783c0,18.058-10.576,25.466-23.17,25.466-11.854,0-18.985-7.964-21.67-14.447l9.353-3.889c1.667,3.982,5.742,8.705,12.317,8.705,8.056,0,13.058-5.001,13.058-14.354v-3.519h-.37c-2.408,2.964-7.038,5.557-12.873,5.557-12.224,0-23.429-10.65-23.429-24.356,0-13.798,11.205-24.54,23.429-24.54,5.835,0,10.465,2.593,12.873,5.464h.37v-3.87h10.113ZM220.695,51.582c0-8.612-5.742-14.91-13.058-14.91-7.408,0-13.612,6.297-13.612,14.91,0,8.52,6.204,14.724,13.612,14.724,7.316,0,13.058-6.204,13.058-14.724Z"/>
    <path class="cls-1" d="M247.563,2.593v71.863h-10.743V2.593h10.743Z"/>
    <path class="cls-1" d="M288.597,59.546l8.334,5.556c-2.686,3.982-9.168,10.835-20.373,10.835-13.891,0-24.255-10.742-24.255-24.448,0-14.539,10.457-24.448,23.051-24.448,12.687,0,18.892,10.094,20.929,15.558l1.112,2.779-32.69,13.521c2.5,4.908,6.39,7.408,11.854,7.408s9.261-2.685,12.039-6.76ZM262.944,50.748l21.855-9.076c-1.204-3.056-4.816-5.186-9.076-5.186-5.464,0-13.058,4.816-12.78,14.261Z"/>
  </g>
  <g>
    <polygon class="cls-1" points="416.45 51.186 400.637 28.635 413.047 28.635 422.66 42.876 423.03 42.876 432.161 28.635 444.963 28.635 428.938 51.186 445.076 74.455 432.554 74.455 422.851 59.777 422.48 59.777 413.013 74.455 400.491 74.455 416.45 51.186"/>
    <path class="cls-1" d="M492.103,50.41c0-12.692-7.751-23.368-22.472-23.368-14.864,0-23.146,12.693-23.146,24.469,0,13.982,9.918,24.427,23.651,24.427,10.196,0,16.916-4.906,21.068-12.163l-8.793-4.223c-2.261,3.964-6.188,6.918-12.039,6.918-7.076,0-12.359-4.609-13.445-12.613h34.906c.18-1.258.27-2.406.27-3.448ZM457.351,46.007c1.56-5.659,5.939-10.027,12.313-10.027,7.515,0,11.539,5.331,11.904,10.027h-24.217Z"/>
    <rect class="cls-1" x="499.385" y="2.593" width="10.743" height="71.862"/>
    <path class="cls-1" d="M353.907,2.628h-26.916v71.827h10.837v-26.919h16.078c12.77,0,21.304-9.571,21.304-22.445,0-12.037-7.69-22.463-21.304-22.463ZM353.904,37.164h-16.075V13h16.075c6.446,0,10.287,5.172,10.287,12.041,0,6.787-3.806,12.122-10.287,12.122Z"/>
    <g>
      <rect class="cls-1" x="383.128" y="28.635" width="10.743" height="45.82"/>
      <path class="cls-1" d="M381.498,16.024c0-3.854,3.072-6.985,7.019-6.985s6.985,3.131,6.985,6.985-3.039,7.019-6.985,7.019-7.019-3.164-7.019-7.019Z"/>
    </g>
  </g>
</svg>